<svg width="16" height="16" viewBox="0 0 16 16" fill="none" xmlns="http://www.w3.org/2000/svg">
  <path fill-rule="evenodd" clip-rule="evenodd"
    d="M13.5071 6.76115C13.8958 7.15628 14.0702 7.71949 13.9741 8.26967C13.9138 8.61459 13.7508 8.93239 13.5071 9.18011L12.5815 10.1211C11.9357 10.7775 10.8511 10.7811 10.2018 10.1211L9.46605 9.37313C9.36029 9.27098 9.2852 9.13689 9.25594 8.9913L4.96177 13.3564C3.26966 15.0765 0.970526 12.3339 2.50375 10.7753L6.47862 6.73475C6.71152 6.498 6.79892 5.83735 6.36106 5.77377C6.03081 5.72581 5.72478 5.57004 5.48914 5.3305C5.0905 4.92527 4.6592 4.53761 4.29233 4.10155C3.88083 3.61245 4.04176 2.89512 4.64939 2.65211C5.45027 2.33181 6.34223 2.10337 7.19593 2.02232C7.94873 1.95086 8.84578 2.02275 9.4729 2.66024L11.3721 4.59079C11.6688 4.89245 11.8212 5.30729 11.796 5.72775C12.2252 5.77679 12.6218 5.897 12.9513 6.19945C13.1448 6.37705 13.3229 6.57384 13.5071 6.76115ZM11.5072 6.90231C10.92 6.83522 10.5106 6.27806 10.6139 5.6867C10.6297 5.59647 10.6011 5.50412 10.5373 5.43932L8.63816 3.50876C8.39578 3.26238 7.96162 3.15486 7.3057 3.21712C6.70669 3.27399 6.06075 3.45895 5.49115 3.63548C5.74927 3.89787 6.18228 4.33613 6.52801 4.58583C7.35799 4.70636 7.94089 5.47928 7.83985 6.32533C7.78325 6.79927 7.65669 7.23427 7.31335 7.58328L3.33848 11.6238C2.78209 12.1894 3.55675 13.0876 4.12703 12.5079L9.00779 7.54649C9.15674 7.39507 9.31378 7.25951 9.53342 7.23437C9.74764 7.20985 9.96119 7.28584 10.1136 7.44083C10.4014 7.73353 10.3585 8.24874 10.4001 8.6256L11.0366 9.27255C11.2303 9.46953 11.554 9.46846 11.7467 9.27255L12.6724 8.33158C12.8651 8.13567 12.8662 7.80666 12.6724 7.60968C12.2852 7.21605 12.0678 6.96636 11.5072 6.90231Z"
    fill="#F4F4F6" />
</svg>
  