<svg xmlns="http://www.w3.org/2000/svg" xmlns:xlink="http://www.w3.org/1999/xlink" width="432" zoomAndPan="magnify" viewBox="0 0 324 82.499998" height="110" preserveAspectRatio="xMidYMid meet" version="1.0"><defs><g/><clipPath id="76dfa286ab"><path d="M 0.976562 10.371094 L 74.777344 10.371094 L 74.777344 80.445312 L 0.976562 80.445312 Z M 0.976562 10.371094 " clip-rule="nonzero"/></clipPath></defs><g clip-path="url(#76dfa286ab)"><path fill="#1C90ED" d="M 9.144531 69.914062 C 9.546875 70.574219 9.78125 71.351562 9.78125 72.183594 C 9.78125 74.605469 7.808594 76.570312 5.378906 76.570312 C 2.949219 76.570312 0.976562 74.605469 0.976562 72.183594 C 0.976562 69.761719 2.949219 67.792969 5.378906 67.792969 C 6.480469 67.792969 7.492188 68.199219 8.265625 68.871094 L 31.664062 50.207031 C 30.871094 49.128906 30.28125 47.890625 29.960938 46.546875 L 15.578125 48.402344 C 15.511719 50.769531 13.566406 52.667969 11.179688 52.667969 C 8.75 52.667969 6.777344 50.703125 6.777344 48.28125 C 6.777344 45.859375 8.75 43.894531 11.179688 43.894531 C 13.179688 43.894531 14.871094 45.226562 15.402344 47.050781 L 29.730469 45.203125 C 29.695312 44.859375 29.675781 44.507812 29.675781 44.15625 C 29.675781 41.429688 30.75 38.949219 32.496094 37.113281 L 21.242188 23.980469 C 20.59375 24.359375 19.839844 24.574219 19.035156 24.574219 C 16.605469 24.574219 14.632812 22.605469 14.632812 20.1875 C 14.632812 17.765625 16.605469 15.796875 19.035156 15.796875 C 21.464844 15.796875 23.4375 17.765625 23.4375 20.1875 C 23.4375 21.3125 23.011719 22.34375 22.308594 23.121094 L 33.503906 36.183594 C 35.207031 34.816406 37.355469 33.976562 39.695312 33.917969 L 39.949219 29.207031 C 38.023438 28.742188 36.589844 27.007812 36.589844 24.945312 C 36.589844 22.523438 38.5625 20.554688 40.992188 20.554688 C 43.421875 20.554688 45.394531 22.523438 45.394531 24.945312 C 45.394531 27.257812 43.59375 29.152344 41.316406 29.316406 L 41.066406 33.976562 C 43.070312 34.191406 44.90625 34.984375 46.398438 36.1875 L 59.121094 21.949219 C 57.878906 20.722656 57.109375 19.023438 57.109375 17.144531 C 57.109375 13.410156 60.152344 10.378906 63.898438 10.378906 C 67.648438 10.378906 70.691406 13.410156 70.691406 17.144531 C 70.691406 20.882812 67.648438 23.914062 63.898438 23.914062 C 62.53125 23.914062 61.253906 23.507812 60.183594 22.8125 L 47.40625 37.113281 C 49.148438 38.949219 50.222656 41.429688 50.222656 44.15625 C 50.222656 44.257812 50.21875 44.359375 50.21875 44.460938 L 66.128906 45.3125 C 66.636719 43.445312 68.347656 42.070312 70.378906 42.070312 C 72.808594 42.070312 74.78125 44.035156 74.78125 46.457031 C 74.78125 48.878906 72.808594 50.84375 70.378906 50.84375 C 68.019531 50.84375 66.09375 48.992188 65.980469 46.667969 L 50.085938 45.824219 C 49.640625 48.53125 48.128906 50.882812 45.992188 52.4375 L 59.410156 72.082031 C 59.980469 71.8125 60.617188 71.664062 61.285156 71.664062 C 63.714844 71.664062 65.6875 73.628906 65.6875 76.050781 C 65.6875 78.472656 63.714844 80.4375 61.285156 80.4375 C 58.859375 80.4375 56.886719 78.472656 56.886719 76.050781 C 56.886719 74.789062 57.421875 73.648438 58.28125 72.847656 L 44.835938 53.164062 C 43.382812 53.949219 41.71875 54.394531 39.949219 54.394531 C 38.640625 54.394531 37.386719 54.152344 36.234375 53.707031 L 29.960938 66.929688 C 31.15625 67.714844 31.949219 69.066406 31.949219 70.601562 C 31.949219 73.023438 29.976562 74.988281 27.546875 74.988281 C 25.117188 74.988281 23.148438 73.023438 23.148438 70.601562 C 23.148438 68.179688 25.117188 66.214844 27.546875 66.214844 C 27.949219 66.214844 28.339844 66.269531 28.710938 66.367188 L 34.996094 53.128906 C 34.085938 52.628906 33.261719 51.996094 32.546875 51.253906 Z M 9.144531 69.914062 " fill-opacity="1" fill-rule="evenodd"/></g><g fill="#1C90ED" fill-opacity="1"><g transform="translate(101.471764, 42.913231)"><g><path d="M 21.515625 -21.28125 L 13.6875 -21.28125 L 13.6875 0 L 8.421875 0 L 8.421875 -21.28125 L 0.703125 -21.28125 L 0.703125 -25.546875 L 21.515625 -25.546875 Z M 21.515625 -21.28125 "/></g></g></g><g fill="#1C90ED" fill-opacity="1"><g transform="translate(123.703778, 42.913231)"><g><path d="M 1.15625 -9.671875 C 1.15625 -11.554688 1.515625 -13.234375 2.234375 -14.703125 C 2.960938 -16.179688 4.007812 -17.320312 5.375 -18.125 C 6.738281 -18.9375 8.320312 -19.34375 10.125 -19.34375 C 12.6875 -19.34375 14.773438 -18.554688 16.390625 -16.984375 C 18.015625 -15.421875 18.921875 -13.289062 19.109375 -10.59375 L 19.140625 -9.296875 C 19.140625 -6.390625 18.328125 -4.054688 16.703125 -2.296875 C 15.078125 -0.535156 12.894531 0.34375 10.15625 0.34375 C 7.414062 0.34375 5.226562 -0.53125 3.59375 -2.28125 C 1.96875 -4.03125 1.15625 -6.414062 1.15625 -9.4375 Z M 6.234375 -9.296875 C 6.234375 -7.492188 6.570312 -6.113281 7.25 -5.15625 C 7.925781 -4.207031 8.894531 -3.734375 10.15625 -3.734375 C 11.382812 -3.734375 12.34375 -4.203125 13.03125 -5.140625 C 13.726562 -6.085938 14.078125 -7.597656 14.078125 -9.671875 C 14.078125 -11.429688 13.726562 -12.796875 13.03125 -13.765625 C 12.34375 -14.742188 11.375 -15.234375 10.125 -15.234375 C 8.882812 -15.234375 7.925781 -14.75 7.25 -13.78125 C 6.570312 -12.820312 6.234375 -11.328125 6.234375 -9.296875 Z M 6.234375 -9.296875 "/></g></g></g><g fill="#1C90ED" fill-opacity="1"><g transform="translate(144.023166, 42.913231)"><g><path d="M 1.15625 -9.671875 C 1.15625 -11.554688 1.515625 -13.234375 2.234375 -14.703125 C 2.960938 -16.179688 4.007812 -17.320312 5.375 -18.125 C 6.738281 -18.9375 8.320312 -19.34375 10.125 -19.34375 C 12.6875 -19.34375 14.773438 -18.554688 16.390625 -16.984375 C 18.015625 -15.421875 18.921875 -13.289062 19.109375 -10.59375 L 19.140625 -9.296875 C 19.140625 -6.390625 18.328125 -4.054688 16.703125 -2.296875 C 15.078125 -0.535156 12.894531 0.34375 10.15625 0.34375 C 7.414062 0.34375 5.226562 -0.53125 3.59375 -2.28125 C 1.96875 -4.03125 1.15625 -6.414062 1.15625 -9.4375 Z M 6.234375 -9.296875 C 6.234375 -7.492188 6.570312 -6.113281 7.25 -5.15625 C 7.925781 -4.207031 8.894531 -3.734375 10.15625 -3.734375 C 11.382812 -3.734375 12.34375 -4.203125 13.03125 -5.140625 C 13.726562 -6.085938 14.078125 -7.597656 14.078125 -9.671875 C 14.078125 -11.429688 13.726562 -12.796875 13.03125 -13.765625 C 12.34375 -14.742188 11.375 -15.234375 10.125 -15.234375 C 8.882812 -15.234375 7.925781 -14.75 7.25 -13.78125 C 6.570312 -12.820312 6.234375 -11.328125 6.234375 -9.296875 Z M 6.234375 -9.296875 "/></g></g></g><g fill="#1C90ED" fill-opacity="1"><g transform="translate(164.342554, 42.913231)"><g><path d="M 7.296875 0 L 2.21875 0 L 2.21875 -26.953125 L 7.296875 -26.953125 Z M 7.296875 0 "/></g></g></g><g fill="#1C90ED" fill-opacity="1"><g transform="translate(173.870564, 42.913231)"><g/></g></g><g fill="#1C90ED" fill-opacity="1"><g transform="translate(182.819518, 42.913231)"><g><path d="M 22.34375 -8.515625 C 22.144531 -5.765625 21.128906 -3.597656 19.296875 -2.015625 C 17.460938 -0.441406 15.050781 0.34375 12.0625 0.34375 C 8.78125 0.34375 6.203125 -0.753906 4.328125 -2.953125 C 2.453125 -5.160156 1.515625 -8.1875 1.515625 -12.03125 L 1.515625 -13.59375 C 1.515625 -16.050781 1.945312 -18.21875 2.8125 -20.09375 C 3.675781 -21.96875 4.910156 -23.40625 6.515625 -24.40625 C 8.128906 -25.40625 10 -25.90625 12.125 -25.90625 C 15.070312 -25.90625 17.445312 -25.113281 19.25 -23.53125 C 21.050781 -21.945312 22.09375 -19.726562 22.375 -16.875 L 17.109375 -16.875 C 16.984375 -18.53125 16.523438 -19.726562 15.734375 -20.46875 C 14.941406 -21.207031 13.738281 -21.578125 12.125 -21.578125 C 10.375 -21.578125 9.0625 -20.945312 8.1875 -19.6875 C 7.3125 -18.4375 6.863281 -16.488281 6.84375 -13.84375 L 6.84375 -11.921875 C 6.84375 -9.160156 7.257812 -7.140625 8.09375 -5.859375 C 8.9375 -4.585938 10.257812 -3.953125 12.0625 -3.953125 C 13.6875 -3.953125 14.894531 -4.320312 15.6875 -5.0625 C 16.488281 -5.800781 16.953125 -6.953125 17.078125 -8.515625 Z M 22.34375 -8.515625 "/></g></g></g><g fill="#1C90ED" fill-opacity="1"><g transform="translate(206.332454, 42.913231)"><g><path d="M 12.953125 0 C 12.710938 -0.457031 12.539062 -1.023438 12.4375 -1.703125 C 11.207031 -0.335938 9.613281 0.34375 7.65625 0.34375 C 5.789062 0.34375 4.242188 -0.191406 3.015625 -1.265625 C 1.796875 -2.335938 1.1875 -3.691406 1.1875 -5.328125 C 1.1875 -7.347656 1.929688 -8.894531 3.421875 -9.96875 C 4.921875 -11.039062 7.078125 -11.582031 9.890625 -11.59375 L 12.234375 -11.59375 L 12.234375 -12.6875 C 12.234375 -13.5625 12.003906 -14.257812 11.546875 -14.78125 C 11.097656 -15.3125 10.390625 -15.578125 9.421875 -15.578125 C 8.566406 -15.578125 7.894531 -15.375 7.40625 -14.96875 C 6.925781 -14.5625 6.6875 -14 6.6875 -13.28125 L 1.609375 -13.28125 C 1.609375 -14.382812 1.945312 -15.398438 2.625 -16.328125 C 3.3125 -17.265625 4.273438 -18 5.515625 -18.53125 C 6.753906 -19.070312 8.144531 -19.34375 9.6875 -19.34375 C 12.03125 -19.34375 13.882812 -18.753906 15.25 -17.578125 C 16.625 -16.398438 17.3125 -14.742188 17.3125 -12.609375 L 17.3125 -4.390625 C 17.332031 -2.585938 17.585938 -1.222656 18.078125 -0.296875 L 18.078125 0 Z M 8.75 -3.53125 C 9.5 -3.53125 10.191406 -3.695312 10.828125 -4.03125 C 11.460938 -4.363281 11.929688 -4.8125 12.234375 -5.375 L 12.234375 -8.640625 L 10.328125 -8.640625 C 7.796875 -8.640625 6.445312 -7.757812 6.28125 -6 L 6.265625 -5.703125 C 6.265625 -5.066406 6.484375 -4.546875 6.921875 -4.140625 C 7.367188 -3.734375 7.976562 -3.53125 8.75 -3.53125 Z M 8.75 -3.53125 "/></g></g></g><g fill="#1C90ED" fill-opacity="1"><g transform="translate(225.599025, 42.913231)"><g><path d="M 8.015625 -23.65625 L 8.015625 -18.984375 L 11.265625 -18.984375 L 11.265625 -15.265625 L 8.015625 -15.265625 L 8.015625 -5.796875 C 8.015625 -5.085938 8.148438 -4.582031 8.421875 -4.28125 C 8.691406 -3.976562 9.207031 -3.828125 9.96875 -3.828125 C 10.53125 -3.828125 11.023438 -3.867188 11.453125 -3.953125 L 11.453125 -0.109375 C 10.460938 0.191406 9.441406 0.34375 8.390625 0.34375 C 4.828125 0.34375 3.015625 -1.445312 2.953125 -5.03125 L 2.953125 -15.265625 L 0.171875 -15.265625 L 0.171875 -18.984375 L 2.953125 -18.984375 L 2.953125 -23.65625 Z M 8.015625 -23.65625 "/></g></g></g><g fill="#1C90ED" fill-opacity="1"><g transform="translate(237.741526, 42.913231)"><g><path d="M 12.953125 0 C 12.710938 -0.457031 12.539062 -1.023438 12.4375 -1.703125 C 11.207031 -0.335938 9.613281 0.34375 7.65625 0.34375 C 5.789062 0.34375 4.242188 -0.191406 3.015625 -1.265625 C 1.796875 -2.335938 1.1875 -3.691406 1.1875 -5.328125 C 1.1875 -7.347656 1.929688 -8.894531 3.421875 -9.96875 C 4.921875 -11.039062 7.078125 -11.582031 9.890625 -11.59375 L 12.234375 -11.59375 L 12.234375 -12.6875 C 12.234375 -13.5625 12.003906 -14.257812 11.546875 -14.78125 C 11.097656 -15.3125 10.390625 -15.578125 9.421875 -15.578125 C 8.566406 -15.578125 7.894531 -15.375 7.40625 -14.96875 C 6.925781 -14.5625 6.6875 -14 6.6875 -13.28125 L 1.609375 -13.28125 C 1.609375 -14.382812 1.945312 -15.398438 2.625 -16.328125 C 3.3125 -17.265625 4.273438 -18 5.515625 -18.53125 C 6.753906 -19.070312 8.144531 -19.34375 9.6875 -19.34375 C 12.03125 -19.34375 13.882812 -18.753906 15.25 -17.578125 C 16.625 -16.398438 17.3125 -14.742188 17.3125 -12.609375 L 17.3125 -4.390625 C 17.332031 -2.585938 17.585938 -1.222656 18.078125 -0.296875 L 18.078125 0 Z M 8.75 -3.53125 C 9.5 -3.53125 10.191406 -3.695312 10.828125 -4.03125 C 11.460938 -4.363281 11.929688 -4.8125 12.234375 -5.375 L 12.234375 -8.640625 L 10.328125 -8.640625 C 7.796875 -8.640625 6.445312 -7.757812 6.28125 -6 L 6.265625 -5.703125 C 6.265625 -5.066406 6.484375 -4.546875 6.921875 -4.140625 C 7.367188 -3.734375 7.976562 -3.53125 8.75 -3.53125 Z M 8.75 -3.53125 "/></g></g></g><g fill="#1C90ED" fill-opacity="1"><g transform="translate(257.008097, 42.913231)"><g><path d="M 7.296875 0 L 2.21875 0 L 2.21875 -26.953125 L 7.296875 -26.953125 Z M 7.296875 0 "/></g></g></g><g fill="#1C90ED" fill-opacity="1"><g transform="translate(266.536107, 42.913231)"><g><path d="M 1.15625 -9.671875 C 1.15625 -11.554688 1.515625 -13.234375 2.234375 -14.703125 C 2.960938 -16.179688 4.007812 -17.320312 5.375 -18.125 C 6.738281 -18.9375 8.320312 -19.34375 10.125 -19.34375 C 12.6875 -19.34375 14.773438 -18.554688 16.390625 -16.984375 C 18.015625 -15.421875 18.921875 -13.289062 19.109375 -10.59375 L 19.140625 -9.296875 C 19.140625 -6.390625 18.328125 -4.054688 16.703125 -2.296875 C 15.078125 -0.535156 12.894531 0.34375 10.15625 0.34375 C 7.414062 0.34375 5.226562 -0.53125 3.59375 -2.28125 C 1.96875 -4.03125 1.15625 -6.414062 1.15625 -9.4375 Z M 6.234375 -9.296875 C 6.234375 -7.492188 6.570312 -6.113281 7.25 -5.15625 C 7.925781 -4.207031 8.894531 -3.734375 10.15625 -3.734375 C 11.382812 -3.734375 12.34375 -4.203125 13.03125 -5.140625 C 13.726562 -6.085938 14.078125 -7.597656 14.078125 -9.671875 C 14.078125 -11.429688 13.726562 -12.796875 13.03125 -13.765625 C 12.34375 -14.742188 11.375 -15.234375 10.125 -15.234375 C 8.882812 -15.234375 7.925781 -14.75 7.25 -13.78125 C 6.570312 -12.820312 6.234375 -11.328125 6.234375 -9.296875 Z M 6.234375 -9.296875 "/></g></g></g><g fill="#1C90ED" fill-opacity="1"><g transform="translate(286.855495, 42.913231)"><g><path d="M 1.203125 -9.640625 C 1.203125 -12.546875 1.894531 -14.890625 3.28125 -16.671875 C 4.675781 -18.453125 6.546875 -19.34375 8.890625 -19.34375 C 10.972656 -19.34375 12.59375 -18.628906 13.75 -17.203125 L 13.96875 -18.984375 L 18.5625 -18.984375 L 18.5625 -0.625 C 18.5625 1.03125 18.179688 2.472656 17.421875 3.703125 C 16.671875 4.929688 15.613281 5.863281 14.25 6.5 C 12.882812 7.144531 11.28125 7.46875 9.4375 7.46875 C 8.050781 7.46875 6.695312 7.191406 5.375 6.640625 C 4.050781 6.085938 3.050781 5.375 2.375 4.5 L 4.609375 1.40625 C 5.878906 2.820312 7.414062 3.53125 9.21875 3.53125 C 10.5625 3.53125 11.609375 3.171875 12.359375 2.453125 C 13.109375 1.734375 13.484375 0.710938 13.484375 -0.609375 L 13.484375 -1.625 C 12.304688 -0.3125 10.765625 0.34375 8.859375 0.34375 C 6.578125 0.34375 4.726562 -0.546875 3.3125 -2.328125 C 1.90625 -4.109375 1.203125 -6.472656 1.203125 -9.421875 Z M 6.28125 -9.265625 C 6.28125 -7.546875 6.625 -6.195312 7.3125 -5.21875 C 8.007812 -4.238281 8.957031 -3.75 10.15625 -3.75 C 11.695312 -3.75 12.804688 -4.332031 13.484375 -5.5 L 13.484375 -13.484375 C 12.796875 -14.640625 11.695312 -15.21875 10.1875 -15.21875 C 8.976562 -15.21875 8.023438 -14.71875 7.328125 -13.71875 C 6.628906 -12.726562 6.28125 -11.242188 6.28125 -9.265625 Z M 6.28125 -9.265625 "/></g></g></g><g fill="#1C90ED" fill-opacity="1"><g transform="translate(103.634104, 70.484484)"><g><path d="M 9.109375 -6.03125 L 3.375 -6.03125 L 3.375 0 L 1.578125 0 L 1.578125 -13.640625 L 10.03125 -13.640625 L 10.03125 -12.15625 L 3.375 -12.15625 L 3.375 -7.5 L 9.109375 -7.5 Z M 9.109375 -6.03125 "/></g></g></g><g fill="#1C90ED" fill-opacity="1"><g transform="translate(114.233586, 70.484484)"><g><path d="M 0.859375 -5.15625 C 0.859375 -6.15625 1.050781 -7.050781 1.4375 -7.84375 C 1.832031 -8.632812 2.375 -9.242188 3.0625 -9.671875 C 3.757812 -10.109375 4.554688 -10.328125 5.453125 -10.328125 C 6.828125 -10.328125 7.941406 -9.847656 8.796875 -8.890625 C 9.648438 -7.929688 10.078125 -6.660156 10.078125 -5.078125 L 10.078125 -4.953125 C 10.078125 -3.960938 9.890625 -3.078125 9.515625 -2.296875 C 9.140625 -1.515625 8.597656 -0.90625 7.890625 -0.46875 C 7.191406 -0.03125 6.382812 0.1875 5.46875 0.1875 C 4.09375 0.1875 2.976562 -0.285156 2.125 -1.234375 C 1.28125 -2.191406 0.859375 -3.460938 0.859375 -5.046875 Z M 2.59375 -4.953125 C 2.59375 -3.828125 2.851562 -2.925781 3.375 -2.25 C 3.894531 -1.570312 4.59375 -1.234375 5.46875 -1.234375 C 6.351562 -1.234375 7.050781 -1.578125 7.5625 -2.265625 C 8.082031 -2.953125 8.34375 -3.914062 8.34375 -5.15625 C 8.34375 -6.269531 8.078125 -7.171875 7.546875 -7.859375 C 7.023438 -8.554688 6.328125 -8.90625 5.453125 -8.90625 C 4.597656 -8.90625 3.90625 -8.5625 3.375 -7.875 C 2.851562 -7.195312 2.59375 -6.222656 2.59375 -4.953125 Z M 2.59375 -4.953125 "/></g></g></g><g fill="#1C90ED" fill-opacity="1"><g transform="translate(125.170153, 70.484484)"><g><path d="M 6.21875 -8.578125 C 5.945312 -8.617188 5.660156 -8.640625 5.359375 -8.640625 C 4.222656 -8.640625 3.453125 -8.160156 3.046875 -7.203125 L 3.046875 0 L 1.3125 0 L 1.3125 -10.140625 L 3 -10.140625 L 3.03125 -8.96875 C 3.59375 -9.875 4.394531 -10.328125 5.4375 -10.328125 C 5.78125 -10.328125 6.039062 -10.28125 6.21875 -10.1875 Z M 6.21875 -8.578125 "/></g></g></g><g fill="#1C90ED" fill-opacity="1"><g transform="translate(131.659063, 70.484484)"><g/></g></g><g fill="#1C90ED" fill-opacity="1"><g transform="translate(136.406362, 70.484484)"><g><path d="M 3.90625 -13.640625 L 8.359375 -2.515625 L 12.828125 -13.640625 L 15.15625 -13.640625 L 15.15625 0 L 13.359375 0 L 13.359375 -5.3125 L 13.53125 -11.046875 L 9.046875 0 L 7.671875 0 L 3.203125 -11.015625 L 3.375 -5.3125 L 3.375 0 L 1.578125 0 L 1.578125 -13.640625 Z M 3.90625 -13.640625 "/></g></g></g><g fill="#1C90ED" fill-opacity="1"><g transform="translate(153.148299, 70.484484)"><g><path d="M 11.625 -4.328125 C 11.445312 -2.890625 10.910156 -1.773438 10.015625 -0.984375 C 9.117188 -0.203125 7.929688 0.1875 6.453125 0.1875 C 4.835938 0.1875 3.539062 -0.390625 2.5625 -1.546875 C 1.59375 -2.703125 1.109375 -4.25 1.109375 -6.1875 L 1.109375 -7.5 C 1.109375 -8.757812 1.332031 -9.867188 1.78125 -10.828125 C 2.238281 -11.796875 2.882812 -12.535156 3.71875 -13.046875 C 4.550781 -13.566406 5.515625 -13.828125 6.609375 -13.828125 C 8.054688 -13.828125 9.21875 -13.421875 10.09375 -12.609375 C 10.96875 -11.804688 11.476562 -10.6875 11.625 -9.25 L 9.8125 -9.25 C 9.65625 -10.34375 9.316406 -11.128906 8.796875 -11.609375 C 8.273438 -12.097656 7.546875 -12.34375 6.609375 -12.34375 C 5.453125 -12.34375 4.546875 -11.914062 3.890625 -11.0625 C 3.242188 -10.21875 2.921875 -9.015625 2.921875 -7.453125 L 2.921875 -6.125 C 2.921875 -4.644531 3.226562 -3.46875 3.84375 -2.59375 C 4.46875 -1.71875 5.335938 -1.28125 6.453125 -1.28125 C 7.441406 -1.28125 8.203125 -1.503906 8.734375 -1.953125 C 9.273438 -2.410156 9.632812 -3.203125 9.8125 -4.328125 Z M 11.625 -4.328125 "/></g></g></g><g fill="#1C90ED" fill-opacity="1"><g transform="translate(165.629849, 70.484484)"><g><path d="M 3.375 -5.34375 L 3.375 0 L 1.578125 0 L 1.578125 -13.640625 L 6.609375 -13.640625 C 8.109375 -13.640625 9.28125 -13.257812 10.125 -12.5 C 10.96875 -11.738281 11.390625 -10.726562 11.390625 -9.46875 C 11.390625 -8.144531 10.972656 -7.125 10.140625 -6.40625 C 9.316406 -5.695312 8.132812 -5.34375 6.59375 -5.34375 Z M 3.375 -6.8125 L 6.609375 -6.8125 C 7.578125 -6.8125 8.316406 -7.035156 8.828125 -7.484375 C 9.335938 -7.941406 9.59375 -8.597656 9.59375 -9.453125 C 9.59375 -10.265625 9.335938 -10.910156 8.828125 -11.390625 C 8.316406 -11.878906 7.613281 -12.132812 6.71875 -12.15625 L 3.375 -12.15625 Z M 3.375 -6.8125 "/></g></g></g></svg>