<svg width="544" height="162" viewBox="0 0 544 162" fill="none" xmlns="http://www.w3.org/2000/svg">
<g clip-path="url(#clip0_3306_49602)">
<path d="M61.1833 42.7734H44.2515V59.7052H61.1833V42.7734Z" fill="white"/>
<path d="M83.0583 21.3906H66.1265V38.3224H83.0583V21.3906Z" fill="white"/>
<path d="M61.1833 21.3906H44.2515V38.3224H61.1833V21.3906Z" fill="white"/>
<path d="M39.3107 42.7734H22.3789V59.7052H39.3107V42.7734Z" fill="white"/>
<path d="M132.905 49.1097C132.511 41.7987 128.738 35.6366 121.842 30.2599L119.29 28.5469L117.588 31.1175C114.244 36.1936 112.834 42.9593 113.333 49.1097C113.727 52.8993 115.043 57.1573 117.588 60.2477C108.035 65.7898 99.2279 64.5313 60.2276 64.5313H0.0143086C-0.160486 73.3386 1.25419 90.2774 12.0262 104.068C13.2171 105.592 14.52 107.065 15.937 108.484C24.6953 117.254 37.9285 123.687 57.7153 123.703C87.9035 123.731 113.766 107.412 129.5 67.9596C134.676 68.0435 148.343 68.8872 155.032 55.964C155.195 55.7473 156.733 52.5357 156.733 52.5357L154.183 50.8227C150.34 48.2358 140.244 47.1311 132.905 49.1097Z" fill="white"/>
<path d="M17.4357 42.7734H0.503906V59.7052H17.4357V42.7734Z" fill="white"/>
<path d="M39.3107 21.3906H22.3789V38.3224H39.3107V21.3906Z" fill="white"/>
<path d="M83.0583 42.7734H66.1265V59.7052H83.0583V42.7734Z" fill="white"/>
<path d="M104.933 42.7734H88.0015V59.7052H104.933V42.7734Z" fill="white"/>
<path d="M83.0583 0H66.1265V16.9318H83.0583V0Z" fill="white"/>
<path d="M536.733 97.96V97.8645C537.681 97.5801 538.343 96.9159 538.343 96.0606C538.343 95.3008 538.012 94.6832 537.583 94.3522C537.012 94.0213 536.35 93.7812 534.877 93.7812C533.598 93.7812 532.598 93.8768 531.89 94.019V101.803H533.694V98.6685H534.547C535.544 98.6685 536.019 99.0507 536.162 99.9014C536.397 100.808 536.539 101.517 536.779 101.801H538.725C538.532 101.517 538.39 101.041 538.154 99.8548C537.917 98.8107 537.488 98.2397 536.733 97.9577V97.96ZM534.593 97.389H533.74V95.161C533.929 95.112 534.26 95.0608 534.735 95.0608C535.877 95.0608 536.397 95.5385 536.397 96.2517C536.397 97.0581 535.591 97.389 534.593 97.389Z" fill="white"/>
<path d="M534.929 89.9375C530.466 89.9375 526.907 93.4031 526.907 97.7217C526.907 102.04 530.466 105.601 534.929 105.601C539.392 105.601 542.902 102.136 542.902 97.7217C542.902 93.3075 539.436 89.9375 534.929 89.9375ZM534.975 103.937C531.463 103.937 528.899 101.185 528.899 97.7194C528.899 94.2538 531.463 91.5013 534.929 91.5013C538.394 91.5013 540.907 94.3027 540.907 97.7683C540.907 101.234 538.39 103.937 534.973 103.937H534.975Z" fill="white"/>
<path d="M208.186 106.542C216.632 106.542 223.74 103.499 229.79 97.3902C235.761 91.3633 238.726 84.0009 238.726 75.3008V23.0977C238.726 21.4314 238.178 20.033 237.059 18.9423C235.943 17.8516 234.603 17.2969 232.997 17.2969C231.391 17.2969 230.012 17.8516 228.937 18.9423C227.861 20.033 227.334 21.4314 227.334 23.0977V50.9251C221.81 46.3594 215.436 44.0568 208.186 44.0568C199.758 44.0568 192.552 47.1006 186.581 53.2091C180.61 59.2966 177.646 66.6613 177.646 75.2985C177.646 83.9357 180.631 91.2794 186.581 97.3879C192.55 103.475 199.74 106.54 208.186 106.54V106.542ZM190.559 67.71C191.555 65.3235 192.916 63.2679 194.619 61.499C196.325 59.7301 198.355 58.3317 200.669 57.2829C203.005 56.2342 205.503 55.7191 208.202 55.7191C210.901 55.7191 213.339 56.2342 215.674 57.2829C218.009 58.3317 220.02 59.7301 221.745 61.52C223.47 63.3099 224.831 65.3864 225.826 67.731C226.821 70.0966 227.329 72.6066 227.329 75.2798C227.329 77.953 226.821 80.4841 225.826 82.8286V82.8706C224.831 85.2361 223.47 87.3127 221.745 89.0816C220.02 90.8715 217.988 92.2699 215.674 93.3187C213.339 94.3674 210.861 94.8825 208.202 94.8825C205.543 94.8825 203.005 94.3674 200.669 93.3187C198.334 92.2699 196.323 90.8715 194.619 89.1026C192.913 87.3337 191.555 85.2571 190.559 82.8916C189.564 80.505 189.056 77.9763 189.056 75.3008C189.056 72.6253 189.564 70.0966 190.559 67.71Z" fill="white"/>
<path d="M482.672 53.2514L482.632 53.2304C476.601 47.1429 469.39 44.0781 461.027 44.0781C452.665 44.0781 445.391 47.1219 439.42 53.2304C433.449 59.3179 430.487 66.6826 430.487 75.3198C430.487 83.957 433.473 91.3007 439.42 97.4092C445.389 103.497 452.581 106.561 461.027 106.561C468.7 106.561 475.34 104.033 480.987 98.973C482.08 97.8217 482.632 96.4234 482.632 94.7966C482.632 93.1698 482.105 91.7319 481.026 90.6411C479.952 89.5504 478.591 88.9957 476.966 88.9957C475.547 89.0377 474.286 89.5108 473.212 90.457C471.506 91.937 469.658 93.0696 467.649 93.8108C465.637 94.5519 463.444 94.9225 461.051 94.9225C458.937 94.9225 456.907 94.5938 454.98 93.9156C453.047 93.2374 451.244 92.3099 449.638 91.0979C448.011 89.8837 446.613 88.4457 445.415 86.7374C444.217 85.05 443.303 83.1786 442.695 81.123H485.886C487.487 81.123 488.827 80.5683 489.946 79.4776C491.064 78.3869 491.612 76.9885 491.612 75.3221C491.612 71.0035 490.857 66.9926 489.379 63.3102C487.897 59.6069 485.639 56.2555 482.676 53.2514H482.672ZM442.648 69.5189C443.238 67.482 444.131 65.6105 445.329 63.9045C446.529 62.2172 447.948 60.7582 449.573 59.544C451.218 58.3297 453.003 57.4045 454.975 56.7263C456.942 56.0481 458.951 55.7195 461.027 55.7195C463.104 55.7195 465.108 56.0481 467.054 56.7263C469.005 57.4045 470.795 58.3297 472.396 59.544C474.023 60.7582 475.442 62.1962 476.64 63.9045C477.857 65.5919 478.775 67.4633 479.404 69.5189H442.648Z" fill="white"/>
<path d="M542.428 47.989H542.447C541.431 46.9822 540.151 46.1991 538.608 45.6234C537.066 45.0478 535.381 44.6562 533.532 44.4302C531.705 44.2041 529.978 44.1016 528.377 44.1016C524.739 44.1016 521.329 44.6982 518.122 45.8915C514.913 47.0847 511.949 48.7907 509.227 51.0118V49.9024C509.227 48.2966 508.679 46.9402 507.56 45.8099C506.446 44.6795 505.125 44.1039 503.563 44.1039C502.002 44.1039 500.617 44.6795 499.503 45.8099C498.385 46.9402 497.837 48.3199 497.837 49.9024V100.768C497.837 102.371 498.385 103.73 499.503 104.86C500.617 105.991 501.957 106.566 503.563 106.566C505.169 106.566 506.465 105.991 507.56 104.86C508.679 103.73 509.227 102.35 509.227 100.768V75.3246C509.227 72.6094 509.735 70.0598 510.73 67.6732C511.725 65.2867 513.086 63.2311 514.811 61.4622C516.54 59.6933 518.57 58.2949 520.882 57.2858C523.217 56.258 525.697 55.7429 528.358 55.7429C531.02 55.7429 533.532 56.216 535.83 57.1413C536.742 57.5538 537.536 57.7589 538.226 57.7589C539.019 57.7589 539.769 57.6144 540.459 57.3067C541.149 56.9991 541.759 56.5866 542.267 56.0529C542.775 55.5192 543.179 54.9016 543.484 54.1814C543.789 53.4822 543.952 52.7201 543.952 51.8974C543.952 50.294 543.444 48.9981 542.431 47.989H542.428Z" fill="white"/>
<path d="M297.345 53.2304C291.316 47.1429 284.107 44.0781 275.74 44.0781C267.374 44.0781 260.107 47.1219 254.136 53.2304C248.165 59.3179 245.203 66.6826 245.203 75.3198C245.203 83.957 248.188 91.3007 254.136 97.4092C260.105 103.497 267.294 106.561 275.74 106.561C284.187 106.561 291.295 103.518 297.345 97.4092C303.314 91.3823 306.281 84.0199 306.281 75.3198C306.239 71.0012 305.488 67.0112 304.027 63.3289C302.545 59.6465 300.331 56.2741 297.347 53.2304H297.345ZM293.385 82.8267V82.8686C292.39 85.2342 291.029 87.3107 289.305 89.0796C287.578 90.8695 285.548 92.2679 283.233 93.3167C280.919 94.3654 278.421 94.8805 275.761 94.8805C273.102 94.8805 270.564 94.3654 268.229 93.3167C265.894 92.2679 263.882 90.8695 262.179 89.1006C260.473 87.3317 259.114 85.2551 258.119 82.8896C257.124 80.503 256.616 77.9743 256.616 75.2988C256.616 72.6233 257.124 70.0946 258.119 67.7081C259.114 65.3215 260.475 63.2659 262.179 61.497C263.885 59.7281 265.915 58.3297 268.229 57.281C270.564 56.2322 273.063 55.7171 275.761 55.7171C278.46 55.7171 280.898 56.2322 283.233 57.281C285.569 58.3297 287.58 59.7281 289.305 61.518C291.029 63.3079 292.39 65.3844 293.385 67.729C294.381 70.0946 294.889 72.6046 294.889 75.2778C294.889 77.951 294.381 80.4821 293.385 82.8267Z" fill="white"/>
<path d="M401.161 69.6451L424.004 54.4659C425.46 53.4615 426.171 51.9256 426.176 49.8607C426.173 49.0869 426.01 48.3505 425.71 47.6583C425.404 46.9591 424.999 46.3228 424.491 45.7868C423.983 45.2531 423.374 44.8196 422.684 44.5329C421.995 44.2463 421.242 44.0808 420.452 44.0808C419.314 44.0808 418.298 44.3698 417.406 44.9664L384.796 66.6666V23.1427C384.796 21.4973 384.248 20.1199 383.132 18.9872C382.016 17.8569 380.696 17.2812 379.133 17.2812C377.569 17.2812 376.189 17.8569 375.07 18.9872C373.954 20.1176 373.406 21.4973 373.406 23.1427V100.684C373.406 102.287 373.954 103.667 375.07 104.819C376.187 105.97 377.527 106.545 379.133 106.545C380.738 106.545 382.036 105.97 383.132 104.819C384.248 103.667 384.796 102.287 384.796 100.684V80.5477L391.457 76.0846L416.655 105.024C417.671 106.03 418.951 106.525 420.473 106.525C421.265 106.525 422.016 106.38 422.705 106.072C423.395 105.783 424.006 105.352 424.512 104.819C425.02 104.285 425.425 103.667 425.731 102.947C426.036 102.248 426.197 101.486 426.197 100.726C426.197 99.2041 425.67 97.8477 424.612 96.6544L401.159 69.6498L401.161 69.6451Z" fill="white"/>
<path d="M329.631 61.48V61.459C331.376 59.6901 333.408 58.2918 335.744 57.2826C338.079 56.2548 340.556 55.7397 343.216 55.7397C345.611 55.7397 347.825 56.1523 349.876 56.9726C351.906 57.7953 353.857 59.0096 355.703 60.5921C356.798 61.4754 358.038 61.9275 359.418 61.9275C361.063 61.9275 362.403 61.3728 363.48 60.2611C364.557 59.1494 365.084 57.7511 365.084 56.0847C365.084 54.4183 364.433 52.8754 363.114 51.6845C357.509 46.6248 350.872 44.0938 343.216 44.0938C334.788 44.0938 327.582 47.1375 321.611 53.246C315.642 59.3335 312.678 66.6982 312.678 75.3354C312.678 83.9726 315.663 91.3163 321.611 97.4248C327.58 103.512 334.769 106.577 343.216 106.577C350.851 106.577 357.49 104.048 363.114 98.9863C364.312 97.7534 364.923 96.3341 364.923 94.6887C364.923 93.0433 364.394 91.624 363.319 90.5333C362.243 89.4425 360.884 88.8879 359.259 88.8879C357.88 88.9298 356.679 89.34 355.666 90.1207C353.838 91.7265 351.93 92.9174 349.879 93.7192C347.849 94.5209 345.635 94.9124 343.218 94.9124C340.559 94.9124 338.081 94.3974 335.746 93.3696C333.411 92.3418 331.381 90.9434 329.633 89.1955C327.887 87.4475 326.505 85.35 325.51 82.9844C324.515 80.5979 324.007 78.0482 324.007 75.3331C324.007 72.6179 324.515 70.0683 325.51 67.6817C326.505 65.2952 327.885 63.2396 329.633 61.4707L329.631 61.48Z" fill="white"/>
<path d="M185.46 155.134H184.134C183.355 155.134 182.717 154.71 182.222 153.859C181.726 153.011 181.479 151.932 181.479 150.622V121.639C181.479 120.861 181.232 120.224 180.736 119.728C180.239 119.234 179.603 118.984 178.824 118.984C178.046 118.984 177.407 119.231 176.913 119.728C176.417 120.224 176.17 120.861 176.17 121.639V150.622C176.17 152.533 176.506 154.223 177.179 155.691C177.85 157.16 178.79 158.318 179.992 159.169C181.195 160.017 182.574 160.443 184.134 160.443H184.241C185.304 160.443 186.168 160.196 186.842 159.7C187.513 159.206 187.851 158.567 187.851 157.789C187.851 157.01 187.629 156.374 187.187 155.878C186.744 155.384 186.168 155.134 185.462 155.134H185.46Z" fill="white"/>
<path d="M209.242 133.132C207.046 131.841 204.571 131.195 201.809 131.195C199.048 131.195 196.563 131.841 194.351 133.132C192.14 134.423 190.387 136.185 189.096 138.413C187.805 140.644 187.159 143.156 187.159 145.95C187.159 148.745 187.751 151.25 188.937 153.462C190.124 155.674 191.741 157.426 193.794 158.717C195.845 160.009 198.164 160.654 200.749 160.654C203.334 160.654 205.65 160.009 207.703 158.717C208.964 157.923 210.06 156.955 210.994 155.813V157.787C210.994 158.566 211.251 159.211 211.763 159.724C212.276 160.237 212.922 160.493 213.7 160.493C214.478 160.493 215.124 160.237 215.637 159.724C216.149 159.211 216.406 158.566 216.406 157.787V145.95C216.406 143.156 215.76 140.641 214.469 138.413C213.178 136.183 211.435 134.423 209.242 133.132ZM206.641 154.578C205.224 155.445 203.616 155.879 201.809 155.879C200.003 155.879 198.439 155.445 197.006 154.578C195.573 153.711 194.44 152.527 193.608 151.022C192.776 149.518 192.361 147.829 192.361 145.953C192.361 144.077 192.776 142.336 193.608 140.83C194.44 139.327 195.573 138.14 197.006 137.274C198.439 136.407 200.04 135.973 201.809 135.973C203.578 135.973 205.224 136.407 206.641 137.274C208.055 138.14 209.169 139.327 209.985 140.83C210.798 142.336 211.206 144.042 211.206 145.953C211.206 147.864 210.798 149.518 209.985 151.022C209.172 152.527 208.055 153.711 206.641 154.578Z" fill="white"/>
<path d="M244.168 133.131C242.114 131.84 239.798 131.194 237.213 131.194C235.125 131.194 233.204 131.628 231.454 132.495C229.701 133.362 228.208 134.539 226.968 136.026V121.693C226.968 120.879 226.721 120.224 226.224 119.728C225.728 119.234 225.073 118.984 224.26 118.984C223.446 118.984 222.836 119.231 222.323 119.728C221.81 120.224 221.554 120.879 221.554 121.693V145.898C221.589 148.695 222.244 151.207 223.518 153.435C224.793 155.666 226.525 157.425 228.72 158.716C230.913 160.008 233.391 160.653 236.153 160.653C238.914 160.653 241.443 160.008 243.636 158.716C245.829 157.425 247.573 155.663 248.864 153.435C250.155 151.205 250.8 148.693 250.8 145.898C250.8 143.104 250.208 140.598 249.022 138.387C247.836 136.175 246.216 134.425 244.165 133.131H244.168ZM244.354 150.995C243.522 152.517 242.399 153.71 240.984 154.577C239.567 155.444 237.959 155.878 236.153 155.878C234.346 155.878 232.783 155.444 231.349 154.577C229.916 153.71 228.793 152.517 227.979 150.995C227.166 149.473 226.758 147.774 226.758 145.898C226.758 144.022 227.163 142.288 227.979 140.801C228.793 139.314 229.916 138.14 231.349 137.27C232.783 136.403 234.384 135.97 236.153 135.97C237.922 135.97 239.567 136.403 240.984 137.27C242.399 138.137 243.522 139.314 244.354 140.801C245.186 142.288 245.601 143.987 245.601 145.898C245.601 147.809 245.184 149.473 244.354 150.995Z" fill="white"/>
<path d="M273.601 145.363C272.06 144.55 269.965 143.876 267.311 143.347C265.4 142.958 263.948 142.559 262.957 142.154C261.967 141.748 261.302 141.287 260.967 140.774C260.631 140.261 260.463 139.686 260.463 139.049C260.463 138.024 261.002 137.246 262.083 136.714C263.162 136.183 264.481 135.917 266.038 135.917C267.383 135.917 268.567 136.076 269.595 136.395C270.62 136.714 271.576 137.297 272.461 138.147C272.993 138.644 273.648 138.963 274.426 139.103C275.204 139.245 275.876 139.122 276.442 138.732C277.008 138.308 277.309 137.786 277.344 137.166C277.379 136.546 277.148 135.954 276.654 135.388C275.594 134.078 274.158 133.053 272.354 132.309C270.55 131.566 268.478 131.195 266.143 131.195C264.339 131.195 262.603 131.487 260.941 132.072C259.277 132.654 257.916 133.54 256.853 134.726C255.793 135.912 255.261 137.406 255.261 139.213C255.261 141.266 256.066 143 257.676 144.414C259.286 145.831 261.878 146.892 265.453 147.6C268.213 148.097 270.114 148.733 271.158 149.511C272.203 150.29 272.706 151.21 272.671 152.271C272.636 153.334 272.079 154.201 271 154.872C269.921 155.545 268.355 155.881 266.301 155.881C264.672 155.881 263.197 155.59 261.869 155.005C260.543 154.422 259.578 153.793 258.976 153.122C258.48 152.59 257.888 152.28 257.198 152.192C256.508 152.103 255.809 152.343 255.101 152.909C254.499 153.369 254.154 153.963 254.066 154.688C253.977 155.413 254.199 156.06 254.73 156.624C255.898 157.792 257.534 158.757 259.641 159.517C261.745 160.279 264.036 160.659 266.514 160.659C268.991 160.659 271.124 160.27 272.804 159.491C274.484 158.713 275.759 157.669 276.626 156.359C277.493 155.049 277.927 153.581 277.927 151.954C277.927 150.539 277.589 149.292 276.917 148.211C276.244 147.132 275.139 146.186 273.601 145.37V145.363Z" fill="white"/>
<path d="M373.888 148.323H376.154L376.039 143.469L373.888 148.323Z" fill="white"/>
<path d="M335.207 145.047C335.077 144.802 334.872 144.623 334.59 144.508C334.308 144.394 333.975 144.336 333.595 144.336C333.152 144.336 332.763 144.397 332.427 144.52C332.091 144.641 331.828 144.821 331.637 145.058C331.516 145.21 331.427 145.382 331.364 145.573H335.336C335.326 145.373 335.289 145.196 335.21 145.047H335.207Z" fill="white"/>
<path d="M403.629 130.047H300.952C297.831 130.047 295.13 132.217 294.457 135.265L290.399 153.66C289.483 157.811 292.643 161.743 296.894 161.743H399.571C402.692 161.743 405.393 159.573 406.067 156.525L410.124 138.129C411.04 133.979 407.88 130.047 403.629 130.047ZM320.303 151.199C319.319 152.383 318.035 153.26 316.458 153.833C314.877 154.406 312.98 154.691 310.769 154.691C308.557 154.691 306.678 154.339 305.091 153.637C303.504 152.936 302.299 151.992 301.474 150.81C300.649 149.629 300.239 148.319 300.239 146.883C300.239 144.807 300.845 143.068 302.059 141.663C303.273 140.26 304.916 139.218 306.993 138.537C309.07 137.859 311.419 137.519 314.045 137.519C315.709 137.519 317.213 137.656 318.555 137.931C319.897 138.206 321.203 138.589 322.47 139.076L321.417 144.159C320.441 143.93 319.529 143.758 318.681 143.644C317.833 143.529 316.854 143.471 315.74 143.471C314.565 143.471 313.519 143.585 312.603 143.814C311.687 144.042 310.955 144.417 310.405 144.935C309.855 145.454 309.58 146.126 309.58 146.948C309.58 147.345 309.675 147.703 309.867 148.025C310.058 148.347 310.335 148.598 310.703 148.78C311.069 148.964 311.505 149.055 312.008 149.055C312.435 149.055 312.817 149.018 313.153 148.941C313.488 148.864 313.775 148.755 314.01 148.61C314.246 148.466 314.449 148.286 314.616 148.072H310.633L311.71 144.546H322.86L322.38 146.697C321.983 148.512 321.291 150.013 320.308 151.195L320.303 151.199ZM340.004 153.18C338.997 153.637 337.866 154.005 336.615 154.28C335.363 154.555 333.988 154.693 332.494 154.693C330.495 154.693 328.765 154.395 327.309 153.8C325.852 153.206 324.745 152.381 323.99 151.328C323.235 150.274 322.857 149.083 322.857 147.757C322.857 145.956 323.323 144.452 324.253 143.247C325.183 142.042 326.47 141.15 328.111 140.57C329.751 139.989 331.632 139.7 333.753 139.7C335.662 139.7 337.256 140.01 338.538 140.628C339.819 141.245 340.735 142.147 341.285 143.329C341.835 144.513 341.964 145.935 341.675 147.599L341.584 148.125H331.271C331.271 148.125 331.278 148.132 331.28 148.137C331.693 148.573 332.31 148.89 333.135 149.088C333.96 149.286 334.914 149.386 335.997 149.386C336.974 149.386 337.883 149.298 338.722 149.123C339.561 148.948 340.325 148.715 341.01 148.424L340.004 153.185V153.18ZM352.754 154.117L354.083 147.937C354.16 147.54 354.19 147.205 354.174 146.93C354.157 146.655 354.071 146.438 353.91 146.277C353.749 146.116 353.502 146.037 353.167 146.037C352.831 146.037 352.584 146.105 352.377 146.242C352.172 146.38 352.001 146.585 351.873 146.86C351.743 147.135 351.633 147.487 351.542 147.913L351.538 147.906L350.214 154.12H341.171L344.101 140.383H353.029L352.249 144.075C352.465 143.637 352.691 143.233 352.927 142.867C353.621 141.791 354.453 140.994 355.423 140.474C356.392 139.954 357.548 139.696 358.891 139.696C360.112 139.696 361.107 139.982 361.879 140.553C362.65 141.127 363.153 142.01 363.389 143.21C363.624 144.408 363.552 145.909 363.172 147.708L361.799 154.12H352.757L352.754 154.117ZM376.268 154.117L376.221 152.332H372.101L371.299 154.117H362.233L370.339 138.09H383.961L385.266 154.117H376.268ZM395.201 154.117H386.045L389.457 138.09H398.613L395.201 154.117Z" fill="white"/>
</g>
<defs>
<clipPath id="clip0_3306_49602">
<rect width="543.95" height="161.746" fill="white"/>
</clipPath>
</defs>
</svg>
