<svg width="313" height="313" viewBox="0 0 313 313" fill="none" xmlns="http://www.w3.org/2000/svg">
<rect width="313" height="313" fill="white"/>
<path d="M137.793 98.6873H119.308V117.172H137.793V98.6873Z" fill="#1D63ED"/>
<path d="M161.673 75.3563H143.189V93.8407H161.673V75.3563Z" fill="#1D63ED"/>
<path d="M137.793 75.3563H119.308V93.8407H137.793V75.3563Z" fill="#1D63ED"/>
<path d="M113.914 98.6873H95.4294V117.172H113.914V98.6873Z" fill="#1D63ED"/>
<path d="M216.091 105.607C215.661 97.6256 211.542 90.8984 204.013 85.0287L201.227 83.1586L199.37 85.965C195.719 91.5065 194.179 98.8926 194.724 105.607C195.154 109.744 196.591 114.393 199.37 117.766C188.941 123.817 179.326 122.443 136.749 122.443H71.0146C70.8237 132.058 72.3681 150.55 84.1279 165.604C85.4281 167.268 86.8503 168.876 88.3973 170.426C97.9588 180 112.405 187.022 134.007 187.04C166.963 187.071 195.197 169.255 212.374 126.185C218.025 126.277 232.944 127.198 240.247 113.09C240.425 112.853 242.104 109.347 242.104 109.347L239.321 107.477C235.125 104.653 224.103 103.447 216.091 105.607Z" fill="#1D63ED"/>
<path d="M90.0337 98.6873H71.5493V117.172H90.0337V98.6873Z" fill="#1D63ED"/>
<path d="M113.914 75.3563H95.4294V93.8407H113.914V75.3563Z" fill="#1D63ED"/>
<path d="M161.673 98.6873H143.189V117.172H161.673V98.6873Z" fill="#1D63ED"/>
<path d="M185.554 98.6873H167.069V117.172H185.554V98.6873Z" fill="#1D63ED"/>
<path d="M161.673 52H143.189V70.4844H161.673V52Z" fill="#1D63ED"/>
<path d="M41.9363 246.532C46.3436 246.532 50.0529 244.943 53.21 241.756C56.3257 238.611 57.8727 234.769 57.8727 230.229V202.989C57.8727 202.119 57.5869 201.39 57.0031 200.821C56.4206 200.251 55.7213 199.962 54.8834 199.962C54.0455 199.962 53.3255 200.251 52.7649 200.821C52.203 201.39 51.9282 202.119 51.9282 202.989V217.51C49.0459 215.127 45.7198 213.926 41.9363 213.926C37.5388 213.926 33.7785 215.514 30.6627 218.702C27.5469 221.878 26 225.721 26 230.228C26 234.735 27.5579 238.567 30.6627 241.755C33.7772 244.931 37.529 246.531 41.9363 246.531V246.532ZM32.7387 226.268C33.2579 225.023 33.9682 223.95 34.8572 223.027C35.7474 222.104 36.8067 221.375 38.0143 220.827C39.2329 220.28 40.5366 220.011 41.9449 220.011C43.3531 220.011 44.6252 220.28 45.8438 220.827C47.0624 221.375 48.1119 222.104 49.0119 223.038C49.9118 223.972 50.622 225.056 51.1413 226.279C51.6606 227.514 51.9257 228.824 51.9257 230.218C51.9257 231.613 51.6606 232.934 51.1413 234.158V234.179C50.622 235.414 49.9118 236.497 49.0119 237.42C48.1119 238.354 47.0514 239.084 45.8438 239.631C44.6252 240.179 43.3325 240.447 41.9449 240.447C40.5572 240.447 39.2329 240.179 38.0143 239.631C36.7957 239.084 35.7462 238.354 34.8572 237.431C33.967 236.508 33.2579 235.425 32.7387 234.19C32.2194 232.945 31.9542 231.626 31.9542 230.229C31.9542 228.833 32.2194 227.514 32.7387 226.268Z" fill="#1D63ED"/>
<path d="M185.168 218.734L185.147 218.723C182 215.547 178.237 213.947 173.874 213.947C169.51 213.947 165.714 215.536 162.599 218.723C159.483 221.9 157.937 225.743 157.937 230.25C157.937 234.757 159.495 238.589 162.599 241.776C165.713 244.953 169.466 246.552 173.874 246.552C177.877 246.552 181.342 245.233 184.289 242.592C184.859 241.992 185.147 241.262 185.147 240.413C185.147 239.564 184.872 238.814 184.309 238.245C183.749 237.676 183.038 237.386 182.191 237.386C181.45 237.408 180.792 237.655 180.232 238.149C179.341 238.921 178.377 239.512 177.329 239.899C176.279 240.285 175.135 240.479 173.886 240.479C172.783 240.479 171.723 240.307 170.718 239.953C169.71 239.599 168.768 239.115 167.93 238.483C167.081 237.849 166.352 237.099 165.727 236.208C165.102 235.327 164.625 234.351 164.307 233.278H186.845C187.68 233.278 188.38 232.989 188.963 232.419C189.547 231.85 189.833 231.121 189.833 230.251C189.833 227.997 189.439 225.904 188.668 223.983C187.895 222.051 186.716 220.302 185.17 218.734H185.168ZM164.283 227.223C164.591 226.16 165.057 225.183 165.682 224.293C166.308 223.413 167.049 222.651 167.896 222.018C168.755 221.384 169.686 220.901 170.715 220.547C171.742 220.193 172.79 220.022 173.874 220.022C174.957 220.022 176.003 220.193 177.019 220.547C178.036 220.901 178.97 221.384 179.806 222.018C180.655 222.651 181.395 223.402 182.021 224.293C182.655 225.174 183.135 226.15 183.463 227.223H164.283Z" fill="#1D63ED"/>
<path d="M216.35 215.976H216.359C215.829 215.451 215.162 215.042 214.356 214.741C213.551 214.441 212.672 214.237 211.708 214.119C210.754 214.001 209.853 213.947 209.018 213.947C207.119 213.947 205.34 214.259 203.667 214.881C201.992 215.504 200.445 216.394 199.025 217.553V216.974C199.025 216.136 198.739 215.429 198.155 214.839C197.574 214.249 196.884 213.949 196.069 213.949C195.255 213.949 194.532 214.249 193.951 214.839C193.367 215.429 193.081 216.149 193.081 216.974V243.517C193.081 244.353 193.367 245.062 193.951 245.652C194.532 246.242 195.231 246.542 196.069 246.542C196.907 246.542 197.583 246.242 198.155 245.652C198.739 245.062 199.025 244.342 199.025 243.517V230.24C199.025 228.823 199.29 227.493 199.809 226.247C200.328 225.002 201.039 223.929 201.938 223.006C202.841 222.083 203.9 221.354 205.107 220.827C206.325 220.291 207.619 220.022 209.008 220.022C210.397 220.022 211.708 220.269 212.907 220.752C213.382 220.967 213.797 221.074 214.157 221.074C214.571 221.074 214.962 220.999 215.322 220.838C215.682 220.677 216.001 220.462 216.266 220.184C216.531 219.905 216.741 219.583 216.901 219.207C217.06 218.842 217.145 218.445 217.145 218.015C217.145 217.179 216.88 216.502 216.351 215.976H216.35Z" fill="#1D63ED"/>
<path d="M88.461 218.723C85.3148 215.547 81.5533 213.947 77.1873 213.947C72.8214 213.947 69.0294 215.536 65.9137 218.723C62.7979 221.9 61.2522 225.743 61.2522 230.25C61.2522 234.757 62.8101 238.589 65.9137 241.776C69.0282 244.953 72.78 246.552 77.1873 246.552C81.5946 246.552 85.3039 244.964 88.461 241.776C91.5755 238.631 93.1237 234.79 93.1237 230.25C93.1018 227.996 92.7102 225.914 91.9477 223.993C91.1742 222.071 90.0188 220.311 88.4622 218.723H88.461ZM86.3947 234.167V234.189C85.8754 235.423 85.1652 236.507 84.2653 237.43C83.3641 238.364 82.3049 239.094 81.0972 239.641C79.8896 240.188 78.5859 240.457 77.1983 240.457C75.8106 240.457 74.4863 240.188 73.2677 239.641C72.0491 239.094 70.9996 238.364 70.1106 237.441C69.2204 236.518 68.5114 235.434 67.9921 234.2C67.4728 232.954 67.2076 231.635 67.2076 230.239C67.2076 228.843 67.4728 227.523 67.9921 226.278C68.5114 225.032 69.2216 223.96 70.1106 223.037C71.0008 222.114 72.0601 221.384 73.2677 220.837C74.4863 220.29 75.79 220.021 77.1983 220.021C78.6066 220.021 79.8787 220.29 81.0972 220.837C82.3158 221.384 83.3653 222.114 84.2653 223.048C85.1652 223.982 85.8754 225.065 86.3947 226.289C86.914 227.523 87.1792 228.833 87.1792 230.228C87.1792 231.623 86.914 232.944 86.3947 234.167Z" fill="#1D63ED"/>
<path d="M142.634 227.274L154.554 219.354C155.314 218.829 155.685 218.028 155.687 216.95C155.686 216.547 155.601 216.162 155.444 215.801C155.285 215.436 155.073 215.104 154.808 214.825C154.543 214.546 154.225 214.32 153.865 214.17C153.506 214.021 153.113 213.934 152.7 213.934C152.107 213.934 151.577 214.085 151.111 214.397L134.095 225.72V203.009C134.095 202.15 133.809 201.431 133.226 200.84C132.644 200.25 131.955 199.95 131.139 199.95C130.323 199.95 129.603 200.25 129.02 200.84C128.437 201.43 128.151 202.15 128.151 203.009V243.471C128.151 244.308 128.437 245.028 129.02 245.628C129.602 246.229 130.302 246.529 131.139 246.529C131.977 246.529 132.655 246.229 133.226 245.628C133.809 245.028 134.095 244.308 134.095 243.471V232.963L137.57 230.634L150.719 245.735C151.25 246.261 151.917 246.519 152.711 246.519C153.125 246.519 153.516 246.443 153.876 246.283C154.236 246.132 154.555 245.907 154.819 245.628C155.084 245.35 155.296 245.028 155.455 244.652C155.614 244.287 155.698 243.889 155.698 243.493C155.698 242.699 155.423 241.991 154.871 241.368L142.633 227.277L142.634 227.274Z" fill="#1D63ED"/>
<path d="M105.308 223.02V223.009C106.219 222.086 107.28 221.356 108.498 220.83C109.717 220.293 111.01 220.024 112.397 220.024C113.647 220.024 114.803 220.24 115.873 220.668C116.932 221.097 117.95 221.731 118.913 222.556C119.485 223.017 120.132 223.253 120.852 223.253C121.711 223.253 122.41 222.964 122.972 222.384C123.533 221.804 123.808 221.074 123.808 220.204C123.808 219.335 123.469 218.53 122.781 217.908C119.856 215.268 116.392 213.947 112.397 213.947C108 213.947 104.239 215.536 101.124 218.723C98.0091 221.9 96.4622 225.743 96.4622 230.25C96.4622 234.757 98.02 238.589 101.124 241.776C104.238 244.953 107.99 246.552 112.397 246.552C116.381 246.552 119.846 245.233 122.781 242.591C123.406 241.948 123.724 241.207 123.724 240.349C123.724 239.49 123.448 238.749 122.888 238.18C122.326 237.611 121.617 237.322 120.769 237.322C120.049 237.344 119.423 237.558 118.894 237.965C117.94 238.803 116.944 239.424 115.874 239.843C114.815 240.261 113.66 240.465 112.399 240.465C111.011 240.465 109.718 240.197 108.5 239.66C107.281 239.124 106.222 238.394 105.31 237.482C104.399 236.57 103.678 235.476 103.158 234.241C102.639 232.996 102.374 231.665 102.374 230.249C102.374 228.832 102.639 227.501 103.158 226.256C103.678 225.011 104.397 223.938 105.31 223.015L105.308 223.02Z" fill="#1D63ED"/>
<g clip-path="url(#clip0_6403_12547)">
<path d="M248.098 224.922V224.822L247.386 226.412C246.735 227.865 245.427 228.916 243.869 229.24L242.254 229.576C244.414 230.073 245.937 232.01 245.911 234.228V234.327L246.623 232.737C247.274 231.285 248.582 230.234 250.14 229.91L251.755 229.573C249.595 229.076 248.072 227.14 248.098 224.922Z" fill="#1D63ED"/>
<path d="M278.241 213.383H238.253C235.076 213.383 232.181 215.204 230.803 218.067L222.096 236.147C219.451 241.638 223.452 248.005 229.546 248.005H269.534C272.711 248.005 275.606 246.184 276.984 243.321L285.691 225.238C288.336 219.746 284.335 213.38 278.241 213.38V213.383ZM247.931 239.372L247.88 237.4H243.328L242.443 239.372H232.425L241.379 221.667H256.429L257.872 239.372H247.931ZM268.848 239.372H258.731L262.501 221.667H272.618L268.848 239.372Z" fill="#1D63ED"/>
</g>
<defs>
<clipPath id="clip0_6403_12547">
<rect width="65.2523" height="34.6217" fill="white" transform="translate(221.266 213.378)"/>
</clipPath>
</defs>
</svg>
