<svg width="76" height="81" viewBox="0 0 76 81" fill="none" xmlns="http://www.w3.org/2000/svg">
<path d="M43.3799 0C54.6936 0 60.3505 -6.94688e-05 63.8652 3.51465C67.3799 7.02937 67.3799 12.6863 67.3799 24V49.7295C70.2113 52.2524 72.6393 55.3881 74.752 58.9434C75.3405 59.9342 74.9209 61.2072 73.8623 61.6631C68.6394 63.9126 63.4336 65.3284 57.7051 65.2012C56.7993 65.181 55.972 65.7306 55.6318 66.5703C53.3543 72.194 49.5145 76.4509 45.2402 80.4434C44.3078 81.3141 42.8095 81.0738 42.1943 79.9561C40.0258 76.0157 37.9451 71.7349 36.7725 67.3799H24C12.6863 67.3799 7.02937 67.3799 3.51465 63.8652C-6.94688e-05 60.3505 0 54.6936 0 43.3799V24C0 12.6863 -7.01883e-05 7.02937 3.51465 3.51465C7.02937 -7.01883e-05 12.6863 0 24 0H43.3799Z" fill="#E5F2FC"/>
<path d="M40.0039 11.0068C42.3606 11.0862 44.772 11.9195 46.6152 13.5956C48.4882 15.299 49.6796 17.7898 49.6797 20.957V46.6796L49.6885 46.8701C49.7715 47.7604 50.445 47.7617 50.7607 47.7617C60.3072 47.7617 66.3057 51.3737 71.1592 59.8671C65.5855 62.3442 59.8326 62.7727 53.7891 62.0312C52.1545 68.198 48.8977 72.6473 44.1318 76.7324C39.6526 69.2671 35.9174 59.8167 42.1973 52.1406C42.7644 51.4474 43.7863 51.345 44.4795 51.912C45.1727 52.4793 45.2752 53.5011 44.708 54.1943C42.5421 56.8416 41.7225 59.6721 41.9609 62.7734C42.1686 65.4723 43.1849 68.4419 44.9482 71.705C47.5512 69.2655 48.6849 67.5093 49.3232 65.9872C50.3568 63.5225 50.7325 60.7977 51.5791 58.2578C56.2495 59.4253 61.7223 59.4719 66.3975 58.247C60.4162 49.6745 51.6457 51.0048 49.3994 51.0048C47.4174 51.0047 46.5474 49.535 46.4463 47.6113L46.4365 47.2206V20.957C46.4364 18.6625 45.6001 17.0568 44.4326 15.9951C43.235 14.9061 41.5921 14.3052 39.8945 14.248C38.1928 14.1907 36.5592 14.6839 35.3848 15.6201C34.2499 16.5249 33.4619 17.9021 33.4619 19.8652V45.537C33.4617 46.4326 32.7354 47.1591 31.8398 47.1591L31.6738 47.1503C30.8563 47.0671 30.2179 46.3765 30.2178 45.537V19.8652C30.2178 17.9019 29.4299 16.5249 28.2949 15.6201C27.1204 14.6839 25.487 14.1907 23.7852 14.248C22.0877 14.3053 20.4446 14.9061 19.2471 15.9951C18.0796 17.0568 17.2433 18.6627 17.2432 20.957V51.5458C17.2428 52.4411 16.5174 53.1668 15.6221 53.1669C14.7267 53.1668 14.0004 52.4411 14 51.5458V20.957C14.0001 17.7899 15.1916 15.299 17.0645 13.5956C18.9077 11.9195 21.32 11.0862 23.6768 11.0068C26.0292 10.9276 28.4502 11.5955 30.3164 13.0829C30.8901 13.5402 31.4026 14.0703 31.8398 14.6669C32.2771 14.0704 32.7897 13.5402 33.3633 13.0829C35.2296 11.5954 37.6513 10.9276 40.0039 11.0068ZM23.5088 19.6494C24.5953 19.6651 25.4884 20.5589 25.5039 21.6454V44.9287C25.7158 48.0621 28.2379 50.9367 31.498 50.9833C34.7579 51.0297 37.356 48.1885 37.3096 44.9287V21.8144C37.2941 20.7278 38.1624 19.8595 39.249 19.8749C40.3357 19.8905 41.2295 20.7834 41.2451 21.8701V45.0976C41.3225 50.5308 36.9313 54.8449 31.498 54.7675C26.0647 54.6898 21.6459 50.362 21.5684 44.9287V21.5888C21.5531 20.5023 22.4223 19.6338 23.5088 19.6494Z" fill="#8BC7F5"/>
</svg>
