<svg width="274" height="245" viewBox="0 0 274 245" fill="none" xmlns="http://www.w3.org/2000/svg">
<path fill-rule="evenodd" clip-rule="evenodd" d="M41.0539 52.6592C36.469 50.0147 34.8981 44.1578 37.5452 39.5774L55.5292 8.45891C57.6892 4.72145 55.4453 0 51.1254 0C22.8896 0 0 22.867 0 51.0749C0 68.8542 9.09334 84.5116 22.8872 93.6589C25.8913 95.651 27.9592 98.886 27.9592 102.488V129.635C11.459 137.2 0 153.851 0 173.176V197.117C0 223.562 21.459 245 47.93 245H226.07C252.541 245 274 223.562 274 197.117V173.176C274 148.44 255.225 128.085 231.135 125.557L231.115 96.0384C231.113 92.561 228.202 89.5583 224.724 89.4439L192.559 88.3862C189.032 88.2702 186.174 91.0346 186.176 94.5606L186.197 125.293H74.2915V102.488C74.2915 98.886 76.3595 95.651 79.3635 93.6589C93.1574 84.5116 102.251 68.8542 102.251 51.0749C102.251 44.3188 100.938 37.869 98.5525 31.9665C96.0071 25.6672 87.7532 26.1206 84.3532 32.0037L69.3685 57.9325C66.7214 62.5129 60.8587 64.0822 56.2737 61.4377L41.0539 52.6592ZM143.591 162.403C140.711 156.648 132.491 156.648 129.611 162.403C127.659 166.301 126.684 168.251 125.38 169.94C124.224 171.439 122.879 172.782 121.379 173.938C119.688 175.24 117.737 176.214 113.835 178.163C108.075 181.04 108.074 189.253 113.834 192.13C117.737 194.079 119.688 195.054 121.379 196.356C122.879 197.511 124.224 198.855 125.38 200.354C126.684 202.043 127.659 203.992 129.611 207.89C132.491 213.645 140.711 213.645 143.591 207.89C145.542 203.992 146.517 202.043 147.821 200.354C148.977 198.855 150.322 197.511 151.823 196.356C153.513 195.054 155.464 194.079 159.367 192.13C165.127 189.253 165.127 181.041 159.367 178.163C155.465 176.214 153.513 175.24 151.823 173.938C150.322 172.782 148.977 171.439 147.821 169.94C146.517 168.251 145.542 166.301 143.591 162.403Z" fill="white"/>
<path d="M174.634 4.80208L217.52 6.21232C221.179 6.33264 223.175 9.46191 225.006 12.3315L225.007 12.3327C225.344 12.8608 225.675 13.3802 226.011 13.8703C226.744 13.3089 227.524 12.6187 228.345 11.8926C231.03 9.51778 234.148 6.75904 237.493 6.86905L260.406 7.62256C262.492 7.69118 264.448 8.77425 265.644 10.5235L272.799 20.988C273.548 22.0847 273.951 23.3739 273.952 24.6815L273.97 51.9604C273.971 53.2679 273.57 54.5308 272.822 55.5782L265.681 65.5727C264.488 67.2433 262.533 68.1979 260.447 68.1292L237.534 67.3758C235.196 67.2989 233.496 65.8525 231.796 64.4055L231.796 64.4048C231.562 64.2061 231.328 64.0073 231.093 63.8121L231.098 70.5008C231.1 74.0268 228.242 76.7912 224.715 76.6752L192.55 75.6175C188.197 75.4743 186.161 71.7064 186.158 67.8645L178.365 57.6745L169.727 63.8692C168.622 64.6617 167.277 65.0655 165.895 65.0201L131.782 63.8983C126.777 63.7337 123.687 57.8686 126.46 53.7977C128.443 50.471 130.323 47.0447 132.211 43.6057C135.377 37.8365 138.563 32.0308 142.283 26.6001C146.02 21.1451 150.466 15.7051 155.666 11.6354C160.892 7.54488 167.251 4.55928 174.634 4.80208Z" fill="white"/>
</svg>
